<?xml version="1.0" standalone="no"?>
<!DOCTYPE svg PUBLIC "-//W3C//DTD SVG 20010904//EN"
 "http://www.w3.org/TR/2001/REC-SVG-20010904/DTD/svg10.dtd">
<svg version="1.0" xmlns="http://www.w3.org/2000/svg"
 width="600.000000pt" height="409.000000pt" viewBox="0 0 600.000000 409.000000"
 preserveAspectRatio="xMidYMid meet">

<g transform="translate(0.000000,409.000000) scale(0.100000,-0.100000)"
fill="#000000" stroke="none">
<path d="M0 4066 c0 -19 7 -25 34 -30 36 -7 86 -44 86 -64 0 -17 -54 -42 -90
-42 l-30 0 0 -92 0 -93 20 31 c24 38 54 50 135 58 33 3 80 8 105 11 35 5 52 2
76 -14 30 -18 32 -23 39 -103 4 -46 14 -99 21 -117 8 -19 13 -40 10 -47 -4
-12 9 -134 39 -344 11 -80 17 -214 19 -437 4 -318 4 -323 28 -365 23 -42 23
-44 7 -73 -10 -17 -24 -52 -31 -78 -11 -41 -10 -49 2 -57 11 -7 2 -10 -30 -10
-34 0 -41 3 -30 11 9 6 11 12 4 15 -6 2 -9 17 -7 32 3 20 -5 37 -34 70 -22 23
-47 42 -56 42 -24 0 -49 43 -42 72 3 13 16 28 28 33 39 17 33 97 -10 143 -7 7
-13 22 -13 33 0 12 -7 19 -20 19 -17 0 -20 7 -20 48 0 26 -7 68 -15 95 -14 46
-13 48 11 75 21 22 23 28 10 30 -9 2 -16 8 -16 13 0 5 -9 9 -20 9 -21 0 -84
51 -100 80 -12 23 -35 141 -50 265 -7 55 -19 118 -27 140 -8 22 -17 87 -20
145 -10 199 -14 114 -11 -215 3 -317 4 -332 25 -370 12 -22 24 -63 27 -92 3
-29 12 -65 20 -82 11 -20 16 -57 16 -108 0 -65 -4 -85 -24 -118 -22 -35 -24
-48 -19 -107 l6 -68 -27 0 -26 0 0 -94 c0 -102 9 -118 53 -95 23 13 150 6 202
-10 l30 -9 -38 -1 c-21 -1 -67 -11 -103 -22 -100 -32 -95 -5 -102 -576 l-5
-483 47 0 47 0 -3 404 c-2 380 -1 405 17 432 41 65 93 86 143 60 34 -17 72
-73 72 -104 0 -32 14 -34 63 -6 43 23 48 24 75 10 37 -19 66 -62 56 -84 -4 -9
-10 -142 -13 -294 -4 -194 -10 -281 -18 -289 -19 -19 -113 -25 -124 -8 -17 25
-49 -26 -49 -77 l0 -44 113 0 113 0 2 73 c2 107 11 143 39 171 27 28 40 26 83
-12 l30 -26 -7 -103 -6 -103 31 0 32 0 -4 348 c-3 194 -1 363 5 383 16 62 70
94 126 75 13 -4 23 -11 23 -16 0 -4 13 -22 29 -39 39 -41 71 -40 120 5 48 43
86 50 177 34 38 -6 91 -15 118 -19 38 -6 56 -16 82 -44 50 -54 56 -93 49 -305
-4 -110 -2 -193 3 -200 8 -12 15 -11 40 2 17 9 43 16 57 16 35 0 94 -26 125
-54 14 -13 38 -26 53 -29 23 -4 30 0 38 20 12 33 11 105 -2 139 -7 20 -7 42 0
74 7 29 8 82 2 150 -7 90 -6 108 8 127 24 33 65 47 123 40 l51 -6 -6 51 c-7
58 -32 102 -53 94 -8 -3 -14 1 -14 10 0 13 12 14 83 9 86 -7 453 -42 522 -50
226 -27 290 -31 280 -15 -3 5 -1 10 4 10 6 0 11 -5 11 -11 0 -7 39 -10 118 -9
144 3 458 -25 526 -46 10 -4 16 -2 13 3 -12 20 10 35 42 28 26 -6 29 -9 21
-25 -14 -26 -13 -34 10 -60 11 -13 21 -32 21 -44 2 -29 -1 -114 -6 -153 -3
-30 -1 -33 23 -34 27 -1 27 -1 -3 -9 -16 -4 -27 -8 -24 -9 4 0 1 -26 -7 -57
l-13 -56 47 6 c26 3 106 11 177 16 72 6 166 14 210 19 44 6 139 12 210 15 128
5 129 4 30 -4 -55 -5 -181 -16 -280 -25 -437 -39 -399 -31 -412 -88 -3 -15
-10 -30 -14 -33 -21 -12 -6 -20 44 -22 28 -2 142 -7 252 -12 l200 -8 -202 3
c-163 2 -203 0 -203 -11 0 -7 15 -14 38 -17 20 -2 -51 -5 -158 -6 -145 -2
-188 -5 -167 -13 15 -5 27 -14 27 -19 0 -5 28 -9 63 -9 34 0 110 -5 170 -10
59 -6 144 -13 190 -15 147 -8 192 -13 210 -20 10 -4 17 -3 17 4 0 6 5 11 11
11 5 0 7 -4 4 -10 -9 -14 38 -17 85 -5 29 8 269 7 281 -1 5 -3 19 1 31 8 28
15 60 11 71 -8 4 -8 16 -14 25 -14 13 -1 9 -7 -13 -26 l-30 -26 48 6 c53 6 84
23 69 38 -13 13 -3 48 14 48 8 0 14 7 14 15 0 31 18 56 35 49 6 -3 3 1 -6 7
-15 11 -14 14 1 29 10 10 19 23 21 29 2 6 36 23 74 37 109 41 134 48 142 41 8
-8 4 -302 -4 -326 -5 -12 -3 -13 7 -4 17 15 27 121 23 238 l-3 95 25 0 c15 0
25 -6 25 -15 0 -8 -6 -12 -13 -9 -11 4 -14 -16 -15 -96 -1 -81 2 -100 14 -100
10 0 14 -13 14 -50 l0 -50 38 0 c20 0 53 3 73 6 35 6 36 7 26 35 -8 21 -8 34
2 52 21 39 57 50 166 52 55 1 109 6 121 13 13 7 47 9 91 5 43 -3 84 -1 106 6
34 12 37 16 43 63 8 56 32 88 67 88 38 0 50 -16 59 -81 4 -35 12 -67 17 -72
14 -14 87 -20 108 -8 12 6 23 25 27 45 4 20 14 52 22 72 14 33 18 36 50 32
l34 -4 0 1338 0 1338 -3000 0 -3000 0 0 -24z m412 -40 c15 -22 8 -58 -14 -77
-28 -23 -86 -24 -116 -3 -30 21 -28 38 11 74 28 27 37 30 72 24 22 -4 43 -12
47 -18z m998 -62 c17 -4 34 -13 37 -20 6 -17 -35 -53 -60 -54 -17 0 -24 -3
-85 -33 -19 -9 -42 -17 -52 -17 -27 0 -77 -67 -62 -82 7 -7 12 -23 12 -37 0
-23 -1 -23 -19 -7 -19 17 -20 17 -37 -9 -24 -37 -30 -131 -11 -177 13 -30 15
-75 11 -260 -3 -123 -10 -263 -15 -313 -5 -49 -10 -98 -10 -107 0 -10 -4 -20
-10 -23 -5 -4 -9 -15 -9 -26 0 -11 -7 -19 -16 -19 -9 0 -14 7 -13 18 1 9 -3
29 -8 43 -34 82 -47 454 -21 609 6 36 10 101 10 145 0 102 -1 113 -13 120 -5
4 -9 21 -9 39 0 34 -30 76 -55 76 -27 0 -55 -42 -55 -83 0 -33 -7 -48 -41 -85
-46 -49 -45 -37 -19 -202 5 -36 10 -104 10 -152 0 -78 3 -92 31 -143 34 -63
35 -88 9 -294 -12 -100 -5 -141 25 -141 9 0 20 -12 25 -26 11 -27 3 -51 -24
-74 -9 -7 -16 -25 -16 -41 0 -23 -4 -29 -22 -29 -12 0 -32 9 -44 21 -18 17
-26 19 -43 10 -22 -12 -98 -5 -118 12 -21 16 -16 100 5 116 15 10 18 21 12 50
-3 20 -11 45 -17 56 -6 11 -10 76 -9 146 1 126 1 127 34 172 17 25 32 49 32
55 0 5 9 17 20 27 23 21 26 45 8 63 -21 21 -24 223 -4 263 19 39 20 55 3 66
-7 4 -24 28 -38 53 -23 39 -25 54 -21 113 4 57 7 67 23 67 12 0 19 7 19 19 0
39 28 53 92 46 33 -4 64 -3 71 3 14 11 62 21 127 28 25 3 70 9 100 13 69 11
217 13 260 5z m482 -109 c4 -16 12 -62 18 -102 9 -64 7 -77 -11 -120 -11 -26
-30 -59 -42 -71 l-22 -24 20 -16 c19 -15 20 -26 17 -92 -3 -48 -10 -81 -19
-92 -15 -17 -17 -16 -44 3 -26 18 -29 26 -29 74 0 57 13 105 33 117 9 6 9 10
0 16 -7 4 -20 26 -30 48 -15 33 -17 58 -13 149 4 73 10 110 18 113 6 2 12 10
12 18 0 12 10 14 42 12 37 -3 43 -6 50 -33z m382 14 c29 -23 34 -59 16 -119
-6 -20 -8 -66 -4 -109 l7 -73 53 6 54 6 17 -41 16 -42 92 5 c51 3 97 8 104 12
6 4 11 32 11 64 0 57 14 92 48 120 26 20 54 14 89 -20 30 -29 33 -37 33 -94
l0 -61 118 -6 c64 -4 281 -7 482 -7 201 0 525 -5 720 -10 195 -5 435 -10 533
-10 152 0 176 -2 165 -14 -7 -8 -15 -10 -16 -5 -2 6 -135 9 -323 9 -176 -1
-324 2 -331 6 -7 4 -8 3 -4 -4 8 -13 -2 -13 -221 -16 -61 0 -106 -4 -100 -8
11 -6 -41 -3 -53 3 -12 7 -180 3 -180 -3 0 -5 -12 -8 -27 -7 -25 0 -26 1 -8 9
13 5 -13 8 -70 8 -49 -1 -94 -3 -99 -6 -17 -9 -57 -8 -63 2 -3 5 -1 6 5 2 6
-3 13 -3 16 2 2 4 -19 8 -47 9 -29 0 -55 -4 -59 -10 -4 -7 -11 -7 -21 2 -9 7
-18 8 -21 3 -3 -5 -24 -6 -47 -2 -60 11 -96 1 -83 -23 3 -7 -3 -1 -14 13 -18
22 -20 22 -19 5 2 -21 -5 -22 -69 -10 -23 4 -34 3 -30 -4 9 -13 -37 -10 -46 4
-5 6 -11 7 -15 0 -8 -10 -123 -15 -123 -5 0 3 -54 4 -120 3 -107 -2 -120 0
-120 15 0 12 -3 13 -8 5 -5 -8 -19 -9 -45 -3 -20 4 -39 4 -42 0 -3 -5 -19 -5
-35 0 -19 5 -30 5 -30 -1 0 -6 -7 -6 -17 -1 -10 5 -76 8 -148 6 l-130 -4 6
133 c7 135 16 177 53 234 36 55 102 70 150 32z m-1693 -99 c5 0 9 -25 9 -55 0
-30 5 -65 11 -79 15 -32 3 -135 -16 -142 -8 -3 -23 3 -35 14 -20 18 -21 27
-15 133 3 62 10 118 15 123 6 6 11 19 11 31 2 18 2 18 6 -2 2 -13 9 -23 14
-23z m4287 -294 c-7 -8 -15 -12 -17 -11 -5 6 10 25 20 25 5 0 4 -6 -3 -14z
m138 -4 c-7 -12 -74 -13 -81 -2 -4 6 13 10 40 10 25 0 44 -4 41 -8z m-1701
-12 c-3 -5 -10 -10 -16 -10 -5 0 -9 5 -9 10 0 6 7 10 16 10 8 0 12 -4 9 -10z
m-1248 -16 c-3 -3 -12 -4 -19 -1 -8 3 -5 6 6 6 11 1 17 -2 13 -5z m403 -19
c85 -3 254 -7 375 -10 738 -17 719 -16 738 -46 15 -24 25 -24 54 3 17 16 26
19 34 11 9 -9 18 -8 35 3 13 9 27 15 31 15 4 -1 27 1 49 5 191 28 1163 44
1184 19 14 -17 20 -58 27 -196 l6 -117 -29 -5 c-38 -8 -174 -15 -409 -22 -104
-4 -224 -8 -265 -11 -238 -15 -942 -15 -1327 0 -226 9 -529 16 -672 16 -221 0
-261 2 -261 14 0 8 4 17 9 21 5 3 17 28 26 55 13 40 14 54 5 65 -8 10 -10 32
-6 68 4 29 3 65 -3 79 -17 45 1 51 129 44 63 -3 185 -8 270 -11z m1140 -31 c0
-17 -22 -14 -28 4 -2 7 3 12 12 12 9 0 16 -7 16 -16z m-2987 -177 c3 -8 1 -20
-4 -28 -11 -19 -34 3 -26 25 8 20 23 21 30 3z m4454 -99 c-3 -7 -5 -2 -5 12 0
14 2 19 5 13 2 -7 2 -19 0 -25z m165 -28 c2 -5 1 -51 -2 -101 -7 -136 -19
-142 -282 -154 -105 -4 -128 -14 -128 -58 -1 -69 -63 -118 -76 -59 -3 15 -10
43 -15 63 l-9 36 -197 2 c-109 1 -421 5 -693 8 -272 3 -511 5 -530 4 -19 -2
-171 -3 -337 -3 -167 0 -303 -3 -303 -7 0 -5 75 -11 168 -15 235 -10 239 -11
247 -52 4 -24 11 -34 24 -34 10 0 35 -7 54 -15 20 -8 60 -15 89 -15 29 0 82
-5 118 -10 44 -6 68 -6 77 2 9 7 13 7 13 -1 0 -6 9 -11 20 -11 11 0 20 -4 20
-9 0 -5 7 -11 14 -14 11 -4 13 -1 9 10 -4 11 -2 14 5 9 7 -4 12 -2 12 3 0 6 5
11 11 11 5 0 8 -4 5 -9 -10 -15 21 -21 56 -10 18 5 44 9 58 8 l25 -1 -25 -7
c-14 -4 -24 -13 -23 -19 2 -10 -38 -23 -67 -20 -33 3 -133 -2 -129 -7 3 -2 92
-6 198 -9 119 -3 198 -9 204 -15 17 -17 -317 -21 -619 -7 -111 5 -175 4 -204
-4 -44 -12 -205 1 -240 20 -10 5 -104 12 -209 16 -105 4 -191 11 -191 16 0 5
4 7 9 4 12 -8 21 44 21 120 l0 64 -75 0 c-67 0 -75 -2 -75 -19 0 -52 -49 -87
-107 -76 -28 5 -38 14 -55 51 -21 42 -24 44 -64 44 -24 0 -45 4 -48 8 -7 12 7
29 29 33 16 3 21 13 23 46 3 44 -12 88 -28 78 -5 -3 -11 -1 -15 4 -3 5 16 26
42 46 l48 37 95 -6 c52 -4 250 -11 440 -17 190 -6 446 -14 570 -18 128 -4 234
-11 245 -18 29 -15 79 -22 178 -24 48 -1 89 -5 92 -8 2 -4 34 -8 71 -9 37 -2
70 -4 73 -6 13 -9 276 16 283 27 9 15 509 -9 570 -29 10 -3 18 -1 18 5 0 6 -6
12 -12 13 -21 2 -32 5 -48 11 -38 14 -126 18 -463 19 -312 2 -339 3 -197 9 91
4 269 12 395 18 127 5 316 13 420 17 105 4 199 12 210 18 18 10 95 21 172 24
17 1 33 -2 35 -8z m-3242 -16 c0 -2 -7 -4 -15 -4 -8 0 -15 4 -15 10 0 5 7 7
15 4 8 -4 15 -8 15 -10z m1595 -52 c-8 -8 -25 10 -19 20 4 6 9 5 15 -3 4 -7 6
-15 4 -17z m-72 -9 c-7 -2 -19 -2 -25 0 -7 3 -2 5 12 5 14 0 19 -2 13 -5z
m154 -9 c-3 -3 -12 -4 -19 -1 -8 3 -5 6 6 6 11 1 17 -2 13 -5z m-1746 -31 c1
-16 1 -98 -1 -143 0 -19 -55 -44 -77 -36 -13 5 -15 18 -11 76 6 81 27 120 63
120 17 0 25 -6 26 -17z m-581 -119 c0 -8 -4 -14 -10 -14 -5 0 -10 9 -10 21 0
11 5 17 10 14 6 -3 10 -13 10 -21z m-702 -79 c-2 -22 -9 -31 -24 -33 -29 -4
-36 20 -22 68 l12 38 19 -21 c11 -13 17 -33 15 -52z m1242 -141 c0 -15 -6 -24
-15 -24 -15 0 -21 40 -9 53 12 11 24 -3 24 -29z m680 -43 c216 -44 703 -57
1678 -42 410 6 502 2 502 -17 0 -11 13 -10 -552 -11 -350 -1 -509 -5 -514 -12
-4 -7 4 -10 22 -9 16 1 241 2 500 1 l470 -1 -6 -50 c-6 -46 -4 -52 25 -80 l31
-30 181 0 c100 0 184 -4 187 -9 3 -5 -25 -8 -62 -7 -37 0 -117 0 -178 -1 -99
-3 -112 -5 -110 -20 1 -17 -53 -18 -1014 -18 -1210 0 -1665 -3 -1658 -11 4 -3
143 -21 310 -40 166 -18 312 -36 323 -38 17 -5 16 -2 -5 15 l-25 21 46 -6 c62
-7 101 -26 94 -44 -4 -12 2 -13 33 -8 38 6 38 6 34 -26 l-5 -31 44 7 c24 3
109 8 189 11 176 5 107 -10 -96 -21 -101 -5 -131 -10 -131 -20 0 -11 16 -14
66 -12 l66 1 -60 7 c-33 3 28 6 135 5 212 0 193 -9 -47 -20 -84 -5 -153 -11
-153 -16 0 -4 15 -6 33 -4 67 8 331 12 307 5 -14 -4 -47 -9 -75 -11 l-50 -2
55 -7 55 -7 -45 -3 c-25 -1 -99 -6 -165 -10 l-120 -6 100 -3 c55 -2 138 -6
185 -10 71 -7 77 -8 35 -11 -300 -16 -314 -18 -110 -15 143 2 177 0 120 -5
-44 -5 -129 -9 -190 -10 -60 -1 -138 -7 -172 -13 -50 -8 -112 -5 -340 17 -153
14 -383 33 -512 40 -176 10 -235 17 -242 27 -11 18 -11 230 0 247 6 10 33 13
105 10 53 -2 96 1 96 5 0 11 -16 15 -105 23 l-80 8 50 7 c28 4 80 8 117 8 37
1 69 4 71 9 2 4 2 44 -1 90 -3 58 -8 82 -17 82 -7 0 -15 6 -18 14 -5 13 79 59
128 70 39 8 411 -1 465 -13z m-1830 -185 c0 -3 -4 -8 -10 -11 -5 -3 -10 -1
-10 4 0 6 5 11 10 11 6 0 10 -2 10 -4z m993 -93 c-7 -2 -19 -2 -25 0 -7 3 -2
5 12 5 14 0 19 -2 13 -5z m-6 -43 c-1 -12 -5 -16 -10 -11 -5 5 -6 14 -3 20 11
16 15 13 13 -9z m1448 -7 c-121 -8 -303 -14 -405 -12 -102 2 -213 3 -248 3
-34 1 -62 4 -62 8 0 9 201 13 630 14 l305 1 -220 -14z m-730 -3 c-3 -5 -14
-10 -23 -9 -14 0 -13 2 3 9 27 11 27 11 20 0z m2591 1 c-4 -5 -2 -51 4 -103 7
-66 6 -94 -1 -97 -8 -2 -8 -6 0 -11 16 -9 -127 -19 -359 -24 -111 -2 -151 -1
-100 3 l85 7 -92 2 c-51 1 -93 -1 -93 -5 0 -5 -89 -9 -198 -9 -123 -1 -180 1
-151 6 25 4 59 14 75 23 16 8 47 17 68 20 21 4 48 15 60 26 12 11 33 22 48 26
14 4 35 15 47 26 11 10 27 19 36 19 8 0 15 5 15 10 0 6 8 10 18 10 13 0 14 2
4 9 -28 17 111 32 313 32 112 1 204 4 204 7 -3 19 2 32 12 32 5 0 8 -4 5 -9z
m-3309 -66 c0 -25 -4 -45 -8 -45 -4 0 -7 20 -7 45 0 25 3 45 8 45 4 0 7 -20 7
-45z m-40 3 c-3 -7 -5 -2 -5 12 0 14 2 19 5 13 2 -7 2 -19 0 -25z m1401 -25
c-10 -2 -28 -2 -40 0 -13 2 -5 4 17 4 22 1 32 -1 23 -4z m-100 -10 c-10 -2
-28 -2 -40 0 -13 2 -5 4 17 4 22 1 32 -1 23 -4z m100 -10 c-10 -2 -28 -2 -40
0 -13 2 -5 4 17 4 22 1 32 -1 23 -4z m-101 -9 c-3 -3 -12 -4 -19 -1 -8 3 -5 6
6 6 11 1 17 -2 13 -5z m-1259 -39 c2 -18 -3 -37 -9 -41 -8 -5 -10 1 -7 20 3
14 2 26 -2 26 -16 0 -17 26 -1 27 12 1 18 -8 19 -32z m1419 -2 c-20 -2 -52 -2
-70 0 -17 2 0 4 38 4 39 0 53 -2 32 -4z m-1407 -69 c0 -8 -4 -12 -10 -9 -5 3
-10 10 -10 16 0 5 5 9 10 9 6 0 10 -7 10 -16z m1553 9 c-7 -2 -21 -2 -30 0
-10 3 -4 5 12 5 17 0 24 -2 18 -5z m-100 -30 c-13 -2 -35 -2 -50 0 -16 2 -5 4
22 4 28 0 40 -2 28 -4z m1210 0 c-7 -2 -19 -2 -25 0 -7 3 -2 5 12 5 14 0 19
-2 13 -5z m625 -9 c61 -5 80 -17 45 -28 -10 -3 -130 -8 -268 -10 -137 -3 -266
-7 -285 -10 -29 -5 -31 -4 -10 3 14 5 53 9 88 10 35 1 61 5 58 10 -4 5 20 7
56 4 53 -5 61 -4 55 10 -10 26 62 29 261 11z m-4338 -34 c5 0 18 -16 30 -36
37 -59 14 -142 -44 -164 -45 -16 -86 60 -72 133 8 40 42 81 63 73 8 -3 18 -6
23 -6z m4404 -43 c-6 -38 -14 -48 -14 -19 0 11 -5 22 -11 24 -5 2 -7 11 -4 20
12 30 35 9 29 -25z m31 -17 c3 -5 1 -10 -4 -10 -6 0 -11 5 -11 10 0 6 2 10 4
10 3 0 8 -4 11 -10z m-1378 -96 c-3 -3 -12 -4 -19 -1 -8 3 -5 6 6 6 11 1 17
-2 13 -5z m750 -30 c-3 -3 -12 -4 -19 -1 -8 3 -5 6 6 6 11 1 17 -2 13 -5z
m-114 -11 c-18 -2 -48 -2 -65 0 -18 2 -4 4 32 4 36 0 50 -2 33 -4z m260 0
c-13 -2 -35 -2 -50 0 -16 2 -5 4 22 4 28 0 40 -2 28 -4z m-400 -10 c-7 -2 -21
-2 -30 0 -10 3 -4 5 12 5 17 0 24 -2 18 -5z m280 0 c-7 -2 -21 -2 -30 0 -10 3
-4 5 12 5 17 0 24 -2 18 -5z m-115 -10 c-21 -2 -55 -2 -75 0 -21 2 -4 4 37 4
41 0 58 -2 38 -4z m-145 -10 c-13 -2 -33 -2 -45 0 -13 2 -3 4 22 4 25 0 35 -2
23 -4z m255 0 c-10 -2 -26 -2 -35 0 -10 3 -2 5 17 5 19 0 27 -2 18 -5z m-720
-10 c-10 -2 -28 -2 -40 0 -13 2 -5 4 17 4 22 1 32 -1 23 -4z m610 0 c-21 -2
-57 -2 -80 0 -24 2 -7 4 37 4 44 0 63 -2 43 -4z m-711 -9 c-3 -3 -12 -4 -19
-1 -8 3 -5 6 6 6 11 1 17 -2 13 -5z m266 -1 c-7 -2 -19 -2 -25 0 -7 3 -2 5 12
5 14 0 19 -2 13 -5z m290 0 c-13 -2 -33 -2 -45 0 -13 2 -3 4 22 4 25 0 35 -2
23 -4z m-2594 -33 c28 0 28 -1 34 -76 4 -45 2 -93 -4 -119 -9 -36 -16 -45 -40
-50 -16 -4 -33 -4 -39 0 -14 9 -13 176 2 233 7 26 14 39 16 30 2 -12 13 -18
31 -18z m2154 23 c-7 -2 -21 -2 -30 0 -10 3 -4 5 12 5 17 0 24 -2 18 -5z m310
0 c-7 -2 -21 -2 -30 0 -10 3 -4 5 12 5 17 0 24 -2 18 -5z m285 0 c-10 -2 -28
-2 -40 0 -13 2 -5 4 17 4 22 1 32 -1 23 -4z m245 0 c-7 -2 -21 -2 -30 0 -10 3
-4 5 12 5 17 0 24 -2 18 -5z m-690 -10 c-7 -2 -19 -2 -25 0 -7 3 -2 5 12 5 14
0 19 -2 13 -5z m295 0 c-10 -2 -28 -2 -40 0 -13 2 -5 4 17 4 22 1 32 -1 23 -4z
m265 0 c-7 -2 -19 -2 -25 0 -7 3 -2 5 12 5 14 0 19 -2 13 -5z m-675 -10 c-16
-2 -40 -2 -55 0 -16 2 -3 4 27 4 30 0 43 -2 28 -4z m210 0 c-10 -2 -26 -2 -35
0 -10 3 -2 5 17 5 19 0 27 -2 18 -5z m375 0 c-13 -2 -33 -2 -45 0 -13 2 -3 4
22 4 25 0 35 -2 23 -4z m-720 -10 c-7 -2 -21 -2 -30 0 -10 3 -4 5 12 5 17 0
24 -2 18 -5z m555 0 c-10 -2 -28 -2 -40 0 -13 2 -5 4 17 4 22 1 32 -1 23 -4z
m-395 -10 c-13 -2 -33 -2 -45 0 -13 2 -3 4 22 4 25 0 35 -2 23 -4z m790 0
c-18 -2 -48 -2 -65 0 -18 2 -4 4 32 4 36 0 50 -2 33 -4z m-3963 -47 c20 -39
-1 -106 -35 -106 -51 0 -72 76 -34 124 24 30 46 24 69 -18z m3023 37 c-7 -2
-19 -2 -25 0 -7 3 -2 5 12 5 14 0 19 -2 13 -5z m795 0 c-10 -2 -26 -2 -35 0
-10 3 -2 5 17 5 19 0 27 -2 18 -5z m-121 -10 c-20 -2 -52 -2 -70 0 -17 2 0 4
38 4 39 0 53 -2 32 -4z m266 0 c-18 -2 -48 -2 -65 0 -18 2 -4 4 32 4 36 0 50
-2 33 -4z m-405 -10 c-15 -2 -42 -2 -60 0 -18 2 -6 4 27 4 33 0 48 -2 33 -4z
m270 0 c-10 -2 -26 -2 -35 0 -10 3 -2 5 17 5 19 0 27 -2 18 -5z m-410 -10
c-21 -2 -57 -2 -80 0 -24 2 -7 4 37 4 44 0 63 -2 43 -4z m300 0 c-16 -2 -40
-2 -55 0 -16 2 -3 4 27 4 30 0 43 -2 28 -4z m-450 -10 c-10 -2 -26 -2 -35 0
-10 3 -2 5 17 5 19 0 27 -2 18 -5z m300 0 c-16 -2 -40 -2 -55 0 -16 2 -3 4 27
4 30 0 43 -2 28 -4z m270 0 c-10 -2 -28 -2 -40 0 -13 2 -5 4 17 4 22 1 32 -1
23 -4z m-670 -10 c-16 -2 -40 -2 -55 0 -16 2 -3 4 27 4 30 0 43 -2 28 -4z
m270 0 c-21 -2 -57 -2 -80 0 -24 2 -7 4 37 4 44 0 63 -2 43 -4z m295 0 c-13
-2 -35 -2 -50 0 -16 2 -5 4 22 4 28 0 40 -2 28 -4z m220 0 c-13 -2 -33 -2 -45
0 -13 2 -3 4 22 4 25 0 35 -2 23 -4z m-930 -10 c-7 -2 -21 -2 -30 0 -10 3 -4
5 12 5 17 0 24 -2 18 -5z m250 0 c-7 -2 -21 -2 -30 0 -10 3 -4 5 12 5 17 0 24
-2 18 -5z m324 0 c-20 -2 -52 -2 -70 0 -17 2 0 4 38 4 39 0 53 -2 32 -4z m221
0 c-10 -2 -26 -2 -35 0 -10 3 -2 5 17 5 19 0 27 -2 18 -5z m-891 -9 c-3 -3
-12 -4 -19 -1 -8 3 -5 6 6 6 11 1 17 -2 13 -5z m266 -1 c-13 -2 -35 -2 -50 0
-16 2 -5 4 22 4 28 0 40 -2 28 -4z m352 -3 c69 -7 69 -7 15 -7 -30 -1 -95 2
-145 6 l-90 8 75 0 c41 0 107 -3 145 -7z m178 3 c-13 -2 -35 -2 -50 0 -16 2
-5 4 22 4 28 0 40 -2 28 -4z m-685 -10 c-10 -2 -28 -2 -40 0 -13 2 -5 4 17 4
22 1 32 -1 23 -4z m245 0 c-7 -2 -21 -2 -30 0 -10 3 -4 5 12 5 17 0 24 -2 18
-5z m-90 -10 c-13 -2 -33 -2 -45 0 -13 2 -3 4 22 4 25 0 35 -2 23 -4z m240 0
c-24 -2 -62 -2 -85 0 -24 2 -5 4 42 4 47 0 66 -2 43 -4z m-370 -10 c-13 -2
-35 -2 -50 0 -16 2 -5 4 22 4 28 0 40 -2 28 -4z m197 -4 c-25 -4 -67 -7 -95
-7 l-50 1 60 7 c33 4 76 7 95 7 31 0 30 0 -10 -8z m-313 -5 c-3 -3 -12 -4 -19
-1 -8 3 -5 6 6 6 11 1 17 -2 13 -5z m470 0 c-3 -3 -12 -4 -19 -1 -8 3 -5 6 6
6 11 1 17 -2 13 -5z m983 -6 c0 -4 -7 -8 -15 -8 -8 0 -15 4 -15 8 0 5 7 9 15
9 8 0 15 -4 15 -9z m-1332 -5 c-16 -2 -40 -2 -55 0 -16 2 -3 4 27 4 30 0 43
-2 28 -4z m469 1 c-3 -3 -12 -4 -19 -1 -8 3 -5 6 6 6 11 1 17 -2 13 -5z m-574
-11 c-7 -2 -21 -2 -30 0 -10 3 -4 5 12 5 17 0 24 -2 18 -5z m414 1 c-3 -3 -12
-4 -19 -1 -8 3 -5 6 6 6 11 1 17 -2 13 -5z m76 -1 c-13 -2 -33 -2 -45 0 -13 2
-3 4 22 4 25 0 35 -2 23 -4z m560 0 c-13 -2 -33 -2 -45 0 -13 2 -3 4 22 4 25
0 35 -2 23 -4z m-445 -10 c-10 -2 -28 -2 -40 0 -13 2 -5 4 17 4 22 1 32 -1 23
-4z m290 0 c-15 -2 -42 -2 -60 0 -18 2 -6 4 27 4 33 0 48 -2 33 -4z m526 -8
c-4 -8 -13 -15 -22 -15 -13 0 -12 3 4 15 24 18 25 18 18 0z m-1187 -1 c-3 -3
-12 -4 -19 -1 -8 3 -5 6 6 6 11 1 17 -2 13 -5z m251 -1 c-15 -2 -42 -2 -60 0
-18 2 -6 4 27 4 33 0 48 -2 33 -4z m290 0 c-16 -2 -40 -2 -55 0 -16 2 -3 4 27
4 30 0 43 -2 28 -4z m-451 -9 c-3 -3 -12 -4 -19 -1 -8 3 -5 6 6 6 11 1 17 -2
13 -5z m-69 -11 c-10 -2 -26 -2 -35 0 -10 3 -2 5 17 5 19 0 27 -2 18 -5z
m-125 -10 c-13 -2 -35 -2 -50 0 -16 2 -5 4 22 4 28 0 40 -2 28 -4z m490 0 c-7
-2 -19 -2 -25 0 -7 3 -2 5 12 5 14 0 19 -2 13 -5z m-625 -10 c-10 -2 -28 -2
-40 0 -13 2 -5 4 17 4 22 1 32 -1 23 -4z m1360 -13 c15 -1 14 -2 -2 -11 -14
-9 -20 -8 -27 2 -4 7 -5 18 -2 23 4 6 8 5 11 -2 2 -7 11 -12 20 -12z m-495 3
c-7 -2 -19 -2 -25 0 -7 3 -2 5 12 5 14 0 19 -2 13 -5z m-90 -10 c-13 -2 -33
-2 -45 0 -13 2 -3 4 22 4 25 0 35 -2 23 -4z m-165 -10 c-16 -2 -40 -2 -55 0
-16 2 -3 4 27 4 30 0 43 -2 28 -4z m502 -27 c0 -9 -30 -14 -35 -6 -4 6 3 10
14 10 12 0 21 -2 21 -4z m-172 -28 c-3 -7 -22 -17 -44 -22 -21 -5 -44 -16 -50
-24 -6 -8 -16 -12 -22 -8 -7 4 -12 3 -12 -2 0 -10 -15 -10 -145 8 -44 6 -105
13 -135 17 -53 6 -54 6 -25 16 52 17 135 24 288 26 114 1 148 -2 145 -11z
m842 -7 c0 -6 -5 -13 -10 -16 -15 -9 -43 3 -35 15 8 13 45 13 45 1z m-1332
-18 c-16 -2 -40 -2 -55 0 -16 2 -3 4 27 4 30 0 43 -2 28 -4z m-240 -10 c-10
-2 -26 -2 -35 0 -10 3 -2 5 17 5 19 0 27 -2 18 -5z m532 -52 c18 -5 25 -14 27
-35 l2 -29 -112 8 c-62 4 -152 11 -202 15 l-90 7 85 2 c59 1 80 4 70 11 -13 9
-13 10 0 11 8 1 -10 5 -40 9 -38 5 -10 7 90 7 80 1 156 -2 170 -6z m-603 -28
c-20 -2 -52 -2 -70 0 -17 2 0 4 38 4 39 0 53 -2 32 -4z m126 0 c-13 -2 -35 -2
-50 0 -16 2 -5 4 22 4 28 0 40 -2 28 -4z m582 -2 c-16 -15 -65 -25 -65 -13 0
11 21 19 55 21 12 1 15 -3 10 -8z m452 -28 c-3 -10 -5 -4 -5 12 0 17 2 24 5
18 2 -7 2 -21 0 -30z"/>
<path d="M3020 3460 c0 -5 5 -10 11 -10 5 0 7 5 4 10 -3 6 -8 10 -11 10 -2 0
-4 -4 -4 -10z"/>
<path d="M4670 3027 l-35 -11 29 -4 c16 -2 40 -11 53 -19 27 -18 47 -7 41 23
-4 23 -39 27 -88 11z"/>
<path d="M5201 3004 c0 -11 3 -14 6 -6 3 7 2 16 -1 19 -3 4 -6 -2 -5 -13z"/>
<path d="M4732 2850 c-8 -13 -8 -20 -2 -20 6 0 13 7 17 15 9 24 -1 27 -15 5z"/>
<path d="M4468 2843 c7 -3 16 -2 19 1 4 3 -2 6 -13 5 -11 0 -14 -3 -6 -6z"/>
<path d="M4523 2843 c9 -2 23 -2 30 0 6 3 -1 5 -18 5 -16 0 -22 -2 -12 -5z"/>
<path d="M4613 2843 c15 -2 37 -2 50 0 12 2 0 4 -28 4 -27 0 -38 -2 -22 -4z"/>
<path d="M2988 2833 c18 -2 45 -2 60 0 15 2 0 4 -33 4 -33 0 -45 -2 -27 -4z"/>
<path d="M3088 2623 c6 -2 18 -2 25 0 6 3 1 5 -13 5 -14 0 -19 -2 -12 -5z"/>
<path d="M3288 2623 c6 -2 18 -2 25 0 6 3 1 5 -13 5 -14 0 -19 -2 -12 -5z"/>
<path d="M3373 2613 c9 -2 23 -2 30 0 6 3 -1 5 -18 5 -16 0 -22 -2 -12 -5z"/>
<path d="M3300 2510 c0 -6 17 -10 37 -10 43 0 41 5 -4 13 -19 4 -33 2 -33 -3z"/>
<path d="M3468 2503 c34 -2 88 -2 120 0 31 2 3 3 -63 3 -66 0 -92 -1 -57 -3z"/>
<path d="M4573 2313 c9 -2 23 -2 30 0 6 3 -1 5 -18 5 -16 0 -22 -2 -12 -5z"/>
<path d="M2720 2199 c0 -4 7 -10 16 -13 25 -9 54 -7 54 5 0 5 -4 8 -9 4 -5 -3
-12 -1 -16 4 -6 11 -45 11 -45 0z"/>
<path d="M2918 2033 c23 -2 59 -2 80 0 20 2 1 4 -43 4 -44 0 -61 -2 -37 -4z"/>
<path d="M2933 1993 c32 -2 81 -2 110 0 29 2 3 3 -58 3 -60 0 -84 -1 -52 -3z"/>
<path d="M4818 2043 c7 -3 16 -2 19 1 4 3 -2 6 -13 5 -11 0 -14 -3 -6 -6z"/>
<path d="M4770 1990 c0 -5 5 -10 10 -10 6 0 10 5 10 10 0 6 -4 10 -10 10 -5 0
-10 -4 -10 -10z"/>
<path d="M4810 1990 c20 -13 33 -13 25 0 -3 6 -14 10 -23 10 -15 0 -15 -2 -2
-10z"/>
<path d="M4943 1993 c9 -2 23 -2 30 0 6 3 -1 5 -18 5 -16 0 -22 -2 -12 -5z"/>
<path d="M4420 1360 c0 -5 12 -10 28 -9 24 0 25 1 7 9 -27 12 -35 12 -35 0z"/>
<path d="M287 2773 c-11 -10 -8 -43 3 -43 6 0 10 11 10 25 0 26 -2 29 -13 18z"/>
<path d="M1944 1595 c-4 -8 1 -26 10 -40 13 -20 25 -25 57 -25 22 0 42 -5 44
-12 4 -10 42 -13 138 -14 146 -2 347 -22 567 -59 80 -13 174 -27 210 -30 36
-4 106 -15 155 -25 l90 -18 -75 -2 -75 -3 60 -7 c33 -5 112 -12 175 -16 105
-6 114 -6 102 9 -8 9 -10 22 -6 28 4 7 3 9 -2 6 -5 -3 -41 0 -79 8 -119 22
-125 24 -295 54 -91 16 -210 34 -265 40 -55 7 -131 16 -170 21 -38 5 -128 14
-200 20 -431 34 -443 35 -431 66 3 8 3 14 0 14 -2 0 -7 -7 -10 -15z"/>
<path d="M1009 1535 c-11 -17 -22 -242 -12 -248 24 -15 29 13 24 133 -3 69 -9
121 -12 115z"/>
<path d="M3476 1411 c-3 -5 -2 -21 4 -35 9 -24 7 -26 -15 -26 -13 0 -26 -4
-29 -9 -7 -11 36 -6 63 8 11 7 21 18 21 25 0 18 -37 50 -44 37z"/>
<path d="M3515 1310 c-3 -5 0 -10 8 -10 8 0 29 -3 46 -6 24 -5 31 -3 31 10 0
12 -10 16 -39 16 -22 0 -43 -4 -46 -10z"/>
<path d="M5775 1190 c-44 -3 -93 -11 -110 -17 -16 -6 -91 -14 -165 -17 -76 -3
-155 -12 -180 -20 -41 -13 -15 -15 318 -15 l362 -1 0 40 0 40 -72 -2 c-40 -1
-109 -4 -153 -8z"/>
<path d="M4918 1165 c-6 -30 -3 -43 8 -33 3 4 4 19 2 35 l-3 28 -7 -30z"/>
<path d="M3551 1156 c22 -23 840 -59 853 -38 5 9 -16 12 -76 12 -46 0 -157 4
-248 10 -261 14 -536 23 -529 16z"/>
<path d="M4548 1123 c-10 -2 -18 -8 -18 -13 0 -4 9 -6 20 -3 11 3 20 9 20 14
0 5 -1 8 -2 8 -2 -1 -11 -3 -20 -6z"/>
<path d="M4200 1080 c0 -5 5 -10 10 -10 6 0 10 5 10 10 0 6 -4 10 -10 10 -5 0
-10 -4 -10 -10z"/>
<path d="M4360 1080 c0 -5 9 -10 21 -10 11 0 17 5 14 10 -3 6 -13 10 -21 10
-8 0 -14 -4 -14 -10z"/>
<path d="M3722 1005 c14 -14 665 -37 688 -24 21 12 14 12 -175 14 -88 1 -241
5 -340 9 -99 4 -177 4 -173 1z"/>
<path d="M4775 995 c-16 -8 -23 -14 -15 -14 8 0 29 6 45 14 17 7 23 13 15 13
-8 0 -28 -6 -45 -13z"/>
<path d="M1950 988 c0 -7 -5 -63 -11 -126 -10 -96 -9 -116 3 -128 12 -13 14
-5 15 53 0 73 10 154 24 191 7 18 5 22 -11 22 -11 0 -20 -5 -20 -12z"/>
<path d="M2208 993 c12 -2 30 -2 40 0 9 3 -1 5 -23 4 -22 0 -30 -2 -17 -4z"/>
<path d="M2303 983 c9 -2 25 -2 35 0 9 3 1 5 -18 5 -19 0 -27 -2 -17 -5z"/>
<path d="M2373 983 c9 -2 23 -2 30 0 6 3 -1 5 -18 5 -16 0 -22 -2 -12 -5z"/>
<path d="M2528 973 c12 -2 30 -2 40 0 9 3 -1 5 -23 4 -22 0 -30 -2 -17 -4z"/>
<path d="M3453 973 c20 -2 54 -2 75 0 20 2 3 4 -38 4 -41 0 -58 -2 -37 -4z"/>
<path d="M2728 963 c18 -2 45 -2 60 0 15 2 0 4 -33 4 -33 0 -45 -2 -27 -4z"/>
<path d="M3583 963 c9 -2 25 -2 35 0 9 3 1 5 -18 5 -19 0 -27 -2 -17 -5z"/>
<path d="M2965 954 c6 -2 97 -10 204 -18 121 -9 198 -19 205 -26 8 -10 5 -11
-17 -6 -16 4 -34 2 -41 -3 -7 -6 -157 -11 -373 -12 -199 -2 -360 -6 -358 -10
3 -4 -4 -9 -15 -12 -11 -3 -20 -1 -20 4 0 5 -7 9 -15 9 -9 0 -12 -6 -8 -15 6
-17 59 -17 71 0 4 6 95 8 237 4 353 -9 1578 3 1593 16 2 2 -82 6 -185 9 -103
4 -312 13 -463 22 -151 8 -315 16 -365 19 -49 2 -151 9 -225 14 -136 10 -243
13 -225 5z"/>
<path d="M3688 953 c7 -3 16 -2 19 1 4 3 -2 6 -13 5 -11 0 -14 -3 -6 -6z"/>
<path d="M3748 953 c12 -2 32 -2 45 0 12 2 2 4 -23 4 -25 0 -35 -2 -22 -4z"/>
<path d="M3835 950 c3 -5 39 -10 78 -9 51 1 65 3 47 9 -37 12 -132 12 -125 0z"/>
<path d="M4160 950 l-155 -6 152 -2 c93 -1 154 2 158 8 3 6 5 9 3 8 -2 -1 -73
-5 -158 -8z"/>
<path d="M5069 956 c-6 -6 -191 -23 -334 -31 -74 -4 -105 -3 -95 4 22 15 9 20
-20 8 -14 -6 -56 -21 -95 -34 l-70 -23 95 5 c52 3 181 10 285 15 193 10 269
22 262 43 -4 12 -21 20 -28 13z"/>
<path d="M4440 928 c0 -4 9 -8 20 -8 11 0 20 4 20 9 0 6 -9 9 -20 8 -11 -1
-20 -5 -20 -9z"/>
<path d="M4440 899 c0 -5 5 -7 10 -4 6 3 10 8 10 11 0 2 -4 4 -10 4 -5 0 -10
-5 -10 -11z"/>
<path d="M4999 896 c-3 -3 -79 -7 -169 -10 -91 -4 -185 -8 -210 -11 -100 -10
-140 -17 -140 -25 0 -5 -8 -10 -17 -13 -10 -2 18 -7 62 -12 92 -9 79 -22 -25
-25 -52 -2 -59 -4 -35 -10 l30 -8 -27 -1 c-45 -2 -32 -19 20 -26 75 -10 80
-12 32 -15 l-45 -3 45 -6 c43 -6 42 -7 -32 -15 -63 -6 -78 -11 -78 -24 -1 -30
-26 -52 -59 -52 -31 0 -45 -24 -19 -32 15 -5 -133 -21 -180 -19 -18 1 -49 -3
-70 -8 -20 -6 -361 -18 -757 -26 -396 -9 -731 -18 -745 -20 -14 -2 -38 -4 -55
-4 -27 -1 -28 -3 -11 -12 20 -12 1146 -16 1379 -5 86 4 126 3 122 -4 -3 -5 3
-10 14 -10 11 0 23 4 26 10 9 15 75 13 75 -2 0 -9 4 -8 10 2 9 13 11 13 20 0
9 -13 10 -13 10 0 0 12 2 12 9 2 9 -15 158 -15 167 -1 3 5 0 9 -7 9 -7 0 -9 3
-6 6 4 4 14 1 24 -7 9 -8 14 -9 10 -3 -4 7 5 11 24 12 16 0 27 -4 24 -9 -4 -5
-2 -9 4 -9 5 0 13 5 16 10 8 14 72 13 81 -1 4 -8 9 -8 13 -1 4 6 31 11 61 11
155 1 191 1 198 2 4 1 53 1 110 0 67 -1 101 -5 97 -11 -4 -7 32 -10 107 -10
62 0 122 0 133 0 11 0 99 0 195 0 96 1 198 -2 225 -5 99 -11 187 -13 208 -5
19 7 17 8 -13 9 -19 1 -45 1 -57 1 -13 0 -23 4 -23 9 0 5 -10 12 -22 16 -28
10 80 21 185 20 l67 0 0 62 c0 72 -1 73 -105 72 -38 0 -82 2 -97 6 -14 4 -35
2 -46 -4 -12 -6 -30 -7 -48 -1 -23 6 -25 8 -8 9 18 1 34 18 34 37 0 10 -47 2
-63 -10 -14 -11 -27 -12 -50 -5 -18 6 -79 7 -138 3 -87 -5 -111 -3 -137 10
-39 20 -55 20 -99 0 -29 -15 -42 -15 -89 -5 -42 10 -61 10 -87 0 -40 -14 -87
-5 -87 16 0 16 -16 21 -22 6 -2 -5 -52 -6 -123 -2 -66 5 -99 9 -72 11 26 1 52
4 57 5 6 1 44 3 85 4 59 1 75 4 75 16 0 8 -6 15 -12 15 -9 0 -8 4 2 10 8 5 11
10 5 10 -5 0 -4 4 3 8 7 5 16 23 21 40 9 31 9 37 0 28z m-42 -72 c-3 -3 -44
-7 -90 -8 -47 0 -80 3 -74 7 7 4 42 6 79 5 37 -1 70 1 74 5 4 4 10 5 12 2 3
-3 3 -8 -1 -11z m-284 -11 c-7 -2 -19 -2 -25 0 -7 3 -2 5 12 5 14 0 19 -2 13
-5z m617 -117 c0 -3 -4 -8 -10 -11 -5 -3 -10 -1 -10 4 0 6 5 11 10 11 6 0 10
-2 10 -4z m-1063 -182 c-3 -3 -12 -4 -19 -1 -8 3 -5 6 6 6 11 1 17 -2 13 -5z
m70 0 c-3 -3 -12 -4 -19 -1 -8 3 -5 6 6 6 11 1 17 -2 13 -5z"/>
<path d="M2510 550 c-24 -8 -23 -8 8 -9 17 -1 32 4 32 9 0 11 -5 11 -40 0z"/>
<path d="M4443 493 c9 -2 23 -2 30 0 6 3 -1 5 -18 5 -16 0 -22 -2 -12 -5z"/>
<path d="M4583 493 c9 -2 23 -2 30 0 6 3 -1 5 -18 5 -16 0 -22 -2 -12 -5z"/>
<path d="M5010 480 c-10 -6 53 -10 192 -10 124 0 209 -4 213 -10 4 -6 13 -5
26 3 15 9 21 9 27 0 4 -6 35 -13 69 -15 34 -1 59 -6 57 -10 -3 -5 0 -8 5 -8 6
0 11 7 11 15 0 9 6 12 17 8 10 -4 14 -2 10 4 -4 6 -1 14 5 16 7 3 -90 6 -217
7 -126 1 -268 3 -315 6 -47 2 -92 0 -100 -6z"/>
<path d="M3856 465 c-4 -13 7 -15 72 -13 47 1 60 3 34 5 -23 2 -40 8 -37 14 4
5 -9 9 -28 9 -22 0 -37 -6 -41 -15z"/>
<path d="M5700 470 c42 -6 43 -6 15 -12 -16 -3 41 -6 128 -7 133 -1 157 1 157
14 0 13 -25 15 -172 13 -100 0 -154 -4 -128 -8z"/>
<path d="M4415 460 c-120 -4 -74 -6 184 -8 189 -1 342 0 340 2 -8 7 -363 11
-524 6z"/>
<path d="M3240 450 c-11 -8 -7 -10 17 -8 17 1 29 6 27 10 -7 11 -26 10 -44 -2z"/>
<path d="M3338 453 c7 -3 16 -2 19 1 4 3 -2 6 -13 5 -11 0 -14 -3 -6 -6z"/>
<path d="M3418 453 c23 -2 59 -2 80 0 20 2 1 4 -43 4 -44 0 -61 -2 -37 -4z"/>
<path d="M4988 453 c6 -2 18 -2 25 0 6 3 1 5 -13 5 -14 0 -19 -2 -12 -5z"/>
<path d="M3083 443 c15 -2 39 -2 55 0 15 2 2 4 -28 4 -30 0 -43 -2 -27 -4z"/>
<path d="M5335 439 c-14 -5 -6 -8 29 -8 27 -1 46 2 43 6 -11 10 -50 11 -72 2z"/>
<path d="M483 412 l-483 -2 0 -205 0 -205 3000 0 3000 0 0 60 c0 50 -3 60 -17
61 -15 0 -15 2 2 9 l20 9 -20 1 c-72 5 -211 -3 -214 -12 -2 -6 -6 -6 -11 2 -5
7 -13 9 -21 5 -16 -11 -99 -12 -99 -2 0 4 -7 7 -15 7 -8 0 -15 -7 -15 -15 0
-8 -9 -15 -20 -15 -22 0 -27 15 -7 24 6 4 1 4 -13 0 -34 -8 -117 -5 -143 5
-12 5 -49 7 -82 5 -74 -5 -118 5 -106 24 7 11 11 10 25 -3 15 -15 21 -12 17 8
-1 5 3 6 9 2 6 -3 8 -11 5 -16 -4 -5 1 -9 9 -9 9 0 16 7 16 15 0 8 5 15 11 15
6 0 9 -6 6 -13 -4 -10 3 -13 21 -12 15 1 53 3 85 3 42 2 57 6 57 16 0 16 -31
24 -110 26 -72 2 -78 10 -9 11 30 1 68 2 84 4 17 1 118 4 225 5 l195 3 -115 9
c-63 5 -164 7 -225 5 -60 -2 -121 -1 -135 4 l-25 7 25 1 c22 1 23 3 7 12 -9 5
-21 8 -26 5 -5 -3 -11 0 -14 8 -5 11 17 14 119 14 88 0 124 -3 124 -11 0 -8 3
-7 9 1 6 10 25 13 62 11 30 -1 70 -1 89 0 33 3 33 3 10 11 -19 6 -9 9 40 11
l65 2 -65 6 c-77 7 -119 3 -98 -10 8 -6 1 -9 -22 -9 -26 0 -31 3 -20 10 12 8
11 10 -7 10 -12 0 -25 4 -28 10 -4 7 55 10 169 10 111 0 176 4 176 10 0 6 -11
10 -24 10 -19 0 -23 4 -19 19 4 15 -2 20 -24 24 -57 11 -956 8 -988 -3 -22 -7
-41 -7 -59 0 -15 5 -25 6 -22 2 3 -5 -1 -9 -9 -9 -8 0 -12 4 -9 9 3 4 -2 8
-10 8 -9 0 -16 -5 -16 -10 0 -7 -27 -9 -77 -6 -213 14 -1888 30 -1907 19 -9
-6 -1849 -5 -1866 0 -3 1 -222 1 -487 -1z m2287 -26 c0 -3 -4 -8 -10 -11 -5
-3 -10 -1 -10 4 0 6 5 11 10 11 6 0 10 -2 10 -4z m-137 -13 c-7 -2 -19 -2 -25
0 -7 3 -2 5 12 5 14 0 19 -2 13 -5z m44 1 c-3 -3 -12 -4 -19 -1 -8 3 -5 6 6 6
11 1 17 -2 13 -5z m3183 -10 c0 -2 -12 -4 -27 -4 -21 0 -24 3 -14 9 13 8 41 5
41 -5z m-1647 -21 c-7 -2 -19 -2 -25 0 -7 3 -2 5 12 5 14 0 19 -2 13 -5z m205
0 c-16 -2 -40 -2 -55 0 -16 2 -3 4 27 4 30 0 43 -2 28 -4z m160 0 c-21 -2 -55
-2 -75 0 -21 2 -4 4 37 4 41 0 58 -2 38 -4z m85 0 c-7 -2 -19 -2 -25 0 -7 3
-2 5 12 5 14 0 19 -2 13 -5z m221 -2 c6 -8 -194 -3 -203 5 -2 2 41 4 97 4 55
0 103 -4 106 -9z m179 2 c-29 -2 -78 -2 -110 0 -32 2 -8 3 52 3 61 0 87 -1 58
-3z m-3068 -59 c14 -37 20 -44 37 -38 14 4 18 2 14 -5 -4 -6 -16 -11 -26 -11
-25 0 -50 -10 -50 -21 0 -5 6 -9 14 -9 8 0 18 -4 21 -10 3 -5 0 -7 -7 -5 -8 3
-22 -2 -33 -11 -17 -13 -17 -15 -2 -10 10 3 17 0 17 -7 0 -7 -8 -13 -17 -14
-10 -1 -33 -5 -50 -9 -33 -6 -47 8 -20 20 9 5 9 7 -1 12 -10 5 -10 9 -1 20 7
8 10 17 7 20 -3 2 -65 6 -139 8 -74 3 -141 5 -149 5 -9 1 -15 11 -15 24 0 21
5 24 47 26 42 2 46 0 41 -18 -4 -15 0 -20 16 -18 14 1 17 5 11 11 -20 20 -9
23 59 18 44 -3 71 0 75 7 4 6 0 11 -8 11 -9 0 -16 5 -16 11 0 6 9 9 20 6 17
-4 20 -2 15 13 -5 16 0 19 32 22 75 6 90 0 108 -48z m3553 49 c-10 -2 -26 -2
-35 0 -10 3 -2 5 17 5 19 0 27 -2 18 -5z m80 0 c-10 -2 -26 -2 -35 0 -10 3 -2
5 17 5 19 0 27 -2 18 -5z m-5438 -13 c0 -5 -12 -10 -26 -10 -14 0 -23 4 -19
10 3 6 15 10 26 10 10 0 19 -4 19 -10z m124 1 c3 -5 -1 -11 -9 -15 -15 -6 -29
7 -18 18 9 9 21 8 27 -3z m76 -7 c0 -2 -15 -4 -32 -4 -23 0 -29 3 -19 9 12 8
51 4 51 -5z m920 0 c0 -2 -15 -4 -32 -3 -27 0 -29 2 -13 8 18 8 45 4 45 -5z
m337 10 c-3 -3 -12 -4 -19 -1 -8 3 -5 6 6 6 11 1 17 -2 13 -5z m126 -1 c-7 -2
-19 -2 -25 0 -7 3 -2 5 12 5 14 0 19 -2 13 -5z m549 -1 c-10 -3 -7 -11 9 -28
19 -20 20 -24 6 -24 -21 0 -22 -19 -3 -26 11 -4 13 -12 5 -31 -11 -31 -11 -33
2 -33 5 0 7 5 3 12 -5 8 9 9 56 5 35 -4 77 -7 93 -7 17 0 28 -2 25 -5 -4 -4
-127 -13 -246 -17 -23 -1 -31 -5 -28 -15 4 -11 1 -11 -14 -3 -13 7 -20 7 -20
1 0 -12 -32 -2 -42 13 -4 6 -2 16 3 22 7 8 6 14 -1 19 -6 4 -18 -1 -25 -11
-13 -17 -14 -17 -15 -2 0 11 13 21 40 29 43 13 51 25 23 32 -12 3 -9 5 8 6 14
0 34 10 44 21 18 20 17 20 -9 20 -15 0 -33 6 -41 13 -11 11 0 14 63 14 43 0
71 -2 64 -5z m638 -7 c46 -3 87 -8 89 -11 2 -2 -31 -4 -75 -5 -185 -2 -187
-16 -1 -18 110 0 187 3 187 8 0 5 -12 12 -27 14 -18 3 -14 5 12 4 22 -1 43 -6
47 -12 5 -6 8 -5 8 3 0 7 4 11 9 7 17 -10 310 -15 336 -5 16 6 25 6 25 0 0 -6
-3 -10 -7 -11 -5 0 -17 -2 -28 -4 -10 -2 -53 -6 -93 -9 -199 -13 1 -20 428
-16 534 6 880 2 880 -11 0 -5 17 -10 38 -10 30 -2 32 -3 10 -6 -45 -7 -32 -23
20 -24 26 -1 51 -1 55 0 5 1 5 -4 2 -10 -4 -6 -24 -9 -46 -7 -22 2 -39 0 -39
-5 0 -5 39 -7 88 -4 48 2 105 2 127 -2 l40 -7 -43 -7 c-24 -4 -65 -5 -90 -2
-112 12 -531 26 -794 26 -37 0 -70 5 -73 10 -4 5 -13 9 -21 9 -8 0 -12 -5 -9
-10 9 -15 -19 -12 -41 5 -17 13 -1 14 150 15 93 0 167 3 163 6 -8 8 -406 9
-414 1 -3 -4 10 -7 30 -7 23 0 37 -5 37 -12 0 -15 -206 -19 -227 -5 -8 5 -13
4 -13 -2 0 -6 -6 -8 -14 -5 -8 3 -23 1 -33 -5 -15 -8 -10 -11 27 -12 25 0 62
0 84 1 27 1 36 -2 31 -10 -4 -6 -16 -10 -26 -7 -10 3 -34 1 -54 -3 -19 -4 -33
-5 -31 -1 2 3 -21 7 -52 9 -32 1 -69 4 -84 6 -16 2 -28 -1 -28 -6 0 -5 -5 -6
-11 -3 -6 4 -113 9 -237 12 -235 5 -316 13 -128 13 59 0 117 5 128 11 15 8 19
8 14 0 -4 -6 -2 -11 3 -11 6 0 11 7 11 15 0 13 -28 15 -202 13 -171 -2 -187
-3 -98 -8 58 -3 91 -7 74 -8 -16 -1 -34 -6 -40 -12 -5 -5 -60 -10 -122 -11
-105 -2 -136 -12 -67 -22 17 -2 -6 -5 -50 -6 -76 -1 -105 8 -105 31 0 4 26 9
58 11 52 3 -3 5 -251 10 -57 2 -80 6 -87 17 -18 28 -10 35 10 10 12 -15 23
-21 27 -15 5 6 18 10 31 9 13 -1 37 2 55 7 27 7 24 8 -21 6 -28 -1 -52 1 -52
6 0 4 35 7 78 6 54 -1 69 -3 52 -9 -19 -6 -12 -8 32 -9 31 -1 59 3 62 8 7 10
-92 23 -191 25 -80 1 -102 16 -25 17 56 0 135 9 141 15 3 3 -126 8 -176 7 -6
0 -14 5 -17 12 -4 10 43 12 227 10 128 -2 270 -6 317 -10z m-2893 -1 c-3 -3
-12 -4 -19 -1 -8 3 -5 6 6 6 11 1 17 -2 13 -5z m186 -1 c-7 -2 -19 -2 -25 0
-7 3 -2 5 12 5 14 0 19 -2 13 -5z m960 0 c-18 -2 -48 -2 -65 0 -18 2 -4 4 32
4 36 0 50 -2 33 -4z m2482 -24 c8 -9 -33 -9 -95 1 -3 0 2 5 10 10 17 12 69 5
85 -11z m105 1 c-20 -13 -40 -13 -40 0 0 6 12 10 28 10 21 0 24 -2 12 -10z
m45 0 c3 -6 -1 -7 -9 -4 -18 7 -21 14 -7 14 6 0 13 -4 16 -10z m50 0 c3 -5 -3
-10 -15 -10 -12 0 -18 5 -15 10 3 6 10 10 15 10 5 0 12 -4 15 -10z m105 -7 c2
-2 -15 -3 -38 -2 -23 2 -42 6 -42 10 0 8 70 0 80 -8z m219 1 c2 -2 -34 -4 -80
-4 -51 0 -79 4 -70 9 12 8 140 3 150 -5z m641 4 c0 -5 4 -7 9 -3 15 8 25 -15
12 -28 -8 -8 -11 -8 -11 1 0 9 -5 10 -19 2 -25 -13 -44 -13 -36 0 3 6 -4 10
-17 10 -184 -1 -478 7 -478 12 0 11 47 13 303 15 146 1 237 -3 237 -9z m337 4
c7 -2 10 -9 6 -16 -3 -6 -2 -8 2 -3 5 4 17 0 27 -10 12 -10 18 -12 18 -4 0 7
5 9 11 5 15 -9 -11 -25 -31 -19 -8 2 -22 0 -30 -5 -8 -5 -12 -10 -7 -11 4 -1
12 -3 17 -4 6 -1 18 -3 28 -5 14 -1 14 -3 2 -7 -22 -9 -52 -42 -46 -52 3 -5 3
-22 0 -39 -6 -28 -9 -30 -55 -30 -50 0 -58 5 -38 25 9 9 5 13 -17 18 -48 11
-51 13 -14 15 32 1 33 2 12 11 -13 5 -20 13 -17 19 3 6 -4 10 -17 11 -13 0
-32 3 -43 5 -11 3 -36 5 -55 5 -32 0 -33 1 -10 9 23 7 24 8 3 9 -12 1 -24 5
-27 9 -3 5 28 7 68 4 48 -3 76 -1 80 7 5 7 -8 11 -42 11 -73 0 -112 10 -105
26 3 8 8 12 12 10 3 -3 22 -1 41 4 35 9 203 10 227 2z m-4049 -9 c-10 -2 -26
-2 -35 0 -10 3 -2 5 17 5 19 0 27 -2 18 -5z m909 -8 c0 -10 -6 -14 -14 -10 -8
3 -20 5 -26 6 -7 0 -3 4 8 9 29 12 32 12 32 -5z m2236 8 c-13 -2 -33 -2 -45 0
-13 2 -3 4 22 4 25 0 35 -2 23 -4z m-2823 -33 c0 -5 -5 -10 -11 -10 -5 0 -7 5
-4 10 3 6 8 10 11 10 2 0 4 -4 4 -10z m73 -14 c-4 -5 -1 -6 8 0 23 14 38 13
32 -2 -3 -8 -18 -14 -35 -14 -16 0 -27 4 -23 9 3 5 -7 12 -22 14 -21 3 -18 4
9 4 21 -1 34 -5 31 -11z m907 4 c0 -5 -4 -10 -10 -10 -5 0 -10 5 -10 10 0 6 5
10 10 10 6 0 10 -4 10 -10z m2918 3 c-10 -2 -28 -2 -40 0 -13 2 -5 4 17 4 22
1 32 -1 23 -4z m-4128 -18 c0 -1 -11 -5 -24 -7 -16 -3 -23 -1 -19 7 3 10 43
10 43 0z m127 9 c-3 -3 -12 -4 -19 -1 -8 3 -5 6 6 6 11 1 17 -2 13 -5z m-64
-21 c-7 -2 -21 -2 -30 0 -10 3 -4 5 12 5 17 0 24 -2 18 -5z m120 -10 c-7 -2
-19 -2 -25 0 -7 3 -2 5 12 5 14 0 19 -2 13 -5z m102 -3 c17 -7 15 -9 -10 -8
-16 0 -41 4 -55 8 -23 7 -22 8 10 8 19 0 44 -3 55 -8z m585 0 c0 -5 -2 -10 -4
-10 -3 0 -8 5 -11 10 -3 6 -1 10 4 10 6 0 11 -4 11 -10z m-390 -9 c0 -4 -24
-6 -52 -4 -78 7 -82 11 -10 12 34 1 62 -3 62 -8z m334 -7 c3 -7 -2 -11 -12
-10 -9 2 -17 7 -19 13 -5 14 25 12 31 -3z m-1661 -1 c-7 -2 -19 -2 -25 0 -7 3
-2 5 12 5 14 0 19 -2 13 -5z m94 1 c-3 -3 -12 -4 -19 -1 -8 3 -5 6 6 6 11 1
17 -2 13 -5z m671 -1 c-10 -2 -26 -2 -35 0 -10 3 -2 5 17 5 19 0 27 -2 18 -5z
m49 1 c-3 -3 -12 -4 -19 -1 -8 3 -5 6 6 6 11 1 17 -2 13 -5z m86 -1 c-7 -2
-21 -2 -30 0 -10 3 -4 5 12 5 17 0 24 -2 18 -5z m573 0 c-7 -7 -87 -5 -95 3
-2 2 20 4 49 4 29 0 50 -3 46 -7z m2249 -23 c3 -5 1 -10 -4 -10 -6 0 -11 5
-11 10 0 6 2 10 4 10 3 0 8 -4 11 -10z m135 6 c0 -3 -4 -8 -10 -11 -5 -3 -10
-1 -10 4 0 6 5 11 10 11 6 0 10 -2 10 -4z m100 -5 c0 -10 -56 -9 -66 2 -4 4 9
7 29 7 21 0 37 -4 37 -9z m45 -1 c8 -13 -5 -13 -25 0 -13 8 -13 10 2 10 9 0
20 -4 23 -10z m35 0 c0 -5 -4 -10 -10 -10 -5 0 -10 5 -10 10 0 6 5 10 10 10 6
0 10 -4 10 -10z m208 1 c7 -1 11 -4 8 -9 -2 -4 -40 -6 -83 -4 -43 1 -88 2
-100 2 -13 0 -23 4 -23 10 0 7 112 8 198 1z m-2948 -11 c12 -8 10 -10 -10 -9
-14 0 -34 4 -45 9 -17 7 -16 9 10 9 17 0 37 -4 45 -9z m763 3 c-7 -2 -19 -2
-25 0 -7 3 -2 5 12 5 14 0 19 -2 13 -5z m1134 1 c-3 -3 -12 -4 -19 -1 -8 3 -5
6 6 6 11 1 17 -2 13 -5z m1217 -9 c4 -12 10 -14 25 -5 24 13 118 13 126 1 3
-6 -12 -8 -35 -6 -24 2 -45 -2 -53 -9 -14 -15 -77 -10 -77 6 0 6 -12 8 -30 5
-18 -4 -30 -2 -30 4 0 6 -4 7 -10 4 -5 -3 -10 -1 -10 4 0 18 87 13 94 -4z
m-2493 -2 c-8 -3 -9 -8 -3 -12 6 -3 0 -11 -13 -17 -19 -9 -22 -9 -18 2 3 8 -1
14 -8 14 -11 0 -11 3 1 10 8 5 24 9 35 9 13 0 15 -3 6 -6z m359 -3 c0 -5 -12
-10 -27 -9 l-28 1 25 8 c14 4 26 8 28 9 1 1 2 -3 2 -9z m154 -19 c3 -4 -6 -6
-19 -3 -14 2 -25 6 -25 8 0 8 39 4 44 -5z m2171 -21 c8 -13 -15 -13 -35 0 -12
8 -11 10 7 10 12 0 25 -4 28 -10z"/>
<path d="M1928 303 c7 -3 16 -2 19 1 4 3 -2 6 -13 5 -11 0 -14 -3 -6 -6z"/>
<path d="M1950 266 c0 -2 9 -6 20 -9 11 -3 20 -1 20 4 0 5 -9 9 -20 9 -11 0
-20 -2 -20 -4z"/>
<path d="M1630 245 c-7 -9 -8 -15 -2 -15 5 0 12 7 16 15 3 8 4 15 2 15 -2 0
-9 -7 -16 -15z"/>
<path d="M2200 180 c0 -5 7 -10 15 -10 8 0 15 5 15 10 0 6 -7 10 -15 10 -8 0
-15 -4 -15 -10z"/>
<path d="M3180 249 c-41 -3 -7 -6 90 -6 149 0 162 3 35 9 -33 2 -89 0 -125 -3z"/>
<path d="M2705 240 c-3 -5 1 -10 9 -10 9 0 16 5 16 10 0 6 -4 10 -9 10 -6 0
-13 -4 -16 -10z"/>
<path d="M2938 243 c34 -2 88 -2 120 0 31 2 3 3 -63 3 -66 0 -92 -1 -57 -3z"/>
<path d="M3478 243 c7 -3 16 -2 19 1 4 3 -2 6 -13 5 -11 0 -14 -3 -6 -6z"/>
<path d="M4333 223 c20 -2 54 -2 75 0 20 2 3 4 -38 4 -41 0 -58 -2 -37 -4z"/>
<path d="M4551 226 c9 -9 199 -14 199 -5 0 5 -46 9 -102 9 -56 0 -99 -2 -97
-4z"/>
<path d="M3340 200 c36 -12 88 -12 95 0 4 6 -17 10 -57 9 -47 -1 -57 -3 -38
-9z"/>
<path d="M3560 200 c0 -5 5 -10 11 -10 5 0 7 5 4 10 -3 6 -8 10 -11 10 -2 0
-4 -4 -4 -10z"/>
<path d="M2720 168 c0 -4 17 -8 37 -8 20 0 33 3 30 7 -10 10 -67 11 -67 1z"/>
<path d="M4990 270 c0 -5 21 -10 48 -10 34 0 43 3 32 10 -20 13 -80 13 -80 0z"/>
<path d="M5150 150 c0 -5 9 -10 21 -10 11 0 17 5 14 10 -3 6 -13 10 -21 10 -8
0 -14 -4 -14 -10z"/>
<path d="M5134 121 c3 -5 15 -7 26 -4 28 7 25 13 -6 13 -14 0 -23 -4 -20 -9z"/>
<path d="M5913 313 c9 -2 23 -2 30 0 6 3 -1 5 -18 5 -16 0 -22 -2 -12 -5z"/>
<path d="M5843 293 c9 -2 25 -2 35 0 9 3 1 5 -18 5 -19 0 -27 -2 -17 -5z"/>
<path d="M5910 296 c0 -2 11 -6 25 -8 13 -3 22 -1 19 3 -5 9 -44 13 -44 5z"/>
<path d="M5949 206 c-3 -3 -74 -6 -159 -8 -85 -1 -175 -5 -200 -8 l-45 -7 50
-2 c41 -3 46 -4 25 -11 -20 -6 -14 -8 25 -8 39 0 45 2 25 8 -16 5 11 8 78 9
67 1 101 -3 97 -9 -4 -6 23 -10 75 -10 79 0 81 1 78 23 -3 20 -36 36 -49 23z"/>
<path d="M5528 163 c12 -2 32 -2 45 0 12 2 2 4 -23 4 -25 0 -35 -2 -22 -4z"/>
</g>
</svg>
